<svg width="800" height="600" viewBox="0 0 800 600" fill="none" xmlns="http://www.w3.org/2000/svg" data-reactroot="">
<path fill-rule="evenodd" clip-rule="evenodd" d="M714.291 302.692L712.112 302.673C712.12 301.783 712.124 300.892 712.124 300C712.124 299.108 712.12 298.217 712.112 297.327L714.291 297.308C714.299 298.204 714.303 299.102 714.303 300C714.303 300.898 714.299 301.796 714.291 302.692ZM713.315 275.89L711.143 276.068C710.998 274.303 710.837 272.543 710.66 270.787L712.828 270.568C713.007 272.338 713.169 274.111 713.315 275.89ZM709.89 249.322L707.744 249.701C707.436 247.954 707.113 246.212 706.774 244.477L708.912 244.059C709.254 245.808 709.58 247.562 709.89 249.322ZM704.021 223.188L701.92 223.764C701.451 222.052 700.966 220.346 700.466 218.647L702.557 218.032C703.061 219.744 703.549 221.463 704.021 223.188ZM695.749 197.712C695.118 196.038 694.471 194.371 693.81 192.712L691.786 193.518C692.442 195.165 693.083 196.819 693.71 198.481L695.749 197.712ZM685.144 173.113L683.185 174.068C682.407 172.472 681.615 170.884 680.809 169.305L682.75 168.314C683.562 169.905 684.36 171.505 685.144 173.113ZM672.305 149.602L670.443 150.734C669.521 149.217 668.586 147.709 667.637 146.211L669.478 145.045C670.434 146.555 671.377 148.074 672.305 149.602ZM657.35 127.374L655.6 128.673C654.543 127.248 653.473 125.833 652.391 124.429L654.117 123.099C655.207 124.513 656.285 125.939 657.35 127.374ZM640.415 106.616L638.792 108.07C637.609 106.749 636.414 105.439 635.207 104.14L636.803 102.656C638.019 103.965 639.223 105.285 640.415 106.616ZM621.647 87.5001L620.164 89.0966C618.865 87.8897 617.555 86.6947 616.233 85.5117L617.687 83.8882C619.018 85.0801 620.338 86.2842 621.647 87.5001ZM601.205 70.1867L599.874 71.9125C598.47 70.8299 597.055 69.76 595.631 68.703L596.929 66.9529C598.365 68.018 599.79 69.0959 601.205 70.1867ZM579.258 54.8254L578.092 56.6664C576.594 55.7174 575.086 54.7819 573.569 53.86L574.701 51.9978C576.229 52.9266 577.749 53.8692 579.258 54.8254ZM555.989 41.5535L554.998 43.4943C553.419 42.688 551.831 41.8958 550.235 41.118L551.19 39.1591C552.798 39.9428 554.398 40.741 555.989 41.5535ZM531.591 30.4929L530.785 32.5173C529.138 31.8612 527.484 31.2199 525.823 30.5935L526.591 28.5545C528.265 29.1856 529.932 29.8318 531.591 30.4929ZM506.271 21.7461L505.656 23.8367C503.957 23.337 502.251 22.8525 500.539 22.3835L501.115 20.2818C502.84 20.7544 504.559 21.2426 506.271 21.7461ZM480.245 15.391L479.827 17.5296C478.091 17.1904 476.349 16.8668 474.603 16.5589L474.981 14.4129C476.741 14.7231 478.496 15.0492 480.245 15.391ZM453.735 11.4751L453.516 13.6432C451.76 13.4662 450 13.305 448.235 13.1598L448.413 10.988C450.192 11.1343 451.966 11.2967 453.735 11.4751ZM426.996 10.0122L426.976 12.1913C426.086 12.1832 425.195 12.1791 424.303 12.1791C423.411 12.1791 422.521 12.1832 421.631 12.1913L421.611 10.0122C422.507 10.0041 423.405 10 424.303 10C425.202 10 426.099 10.0041 426.996 10.0122ZM400.193 10.988L400.372 13.1598C398.607 13.305 396.846 13.4662 395.09 13.6432L394.872 11.4751C396.641 11.2967 398.415 11.1343 400.193 10.988ZM373.626 14.4129L374.004 16.5589C372.257 16.8668 370.516 17.1904 368.78 17.5296L368.362 15.391C370.111 15.0492 371.866 14.7231 373.626 14.4129ZM347.491 20.2818C345.766 20.7544 344.048 21.2426 342.335 21.7461L342.95 23.8367C344.649 23.337 346.355 22.8525 348.067 22.3835L347.491 20.2818ZM322.015 28.5545L322.784 30.5935C321.122 31.2199 319.468 31.8612 317.822 32.5173L317.015 30.4929C318.674 29.8318 320.341 29.1856 322.015 28.5545ZM297.417 39.1591L298.371 41.118C296.775 41.8958 295.188 42.688 293.608 43.4943L292.617 41.5535C294.209 40.741 295.809 39.9428 297.417 39.1591ZM273.905 51.9978L275.037 53.86C273.52 54.7819 272.013 55.7174 270.514 56.6664L269.348 54.8254C270.858 53.8692 272.377 52.9266 273.905 51.9978ZM251.677 66.9529L252.976 68.703C251.551 69.76 250.137 70.8299 248.732 71.9125L247.402 70.1867C248.817 69.0959 250.242 68.0179 251.677 66.9529ZM230.919 83.8882L232.373 85.5117C231.052 86.6946 229.742 87.8897 228.443 89.0965L226.96 87.5001C228.268 86.2841 229.588 85.0801 230.919 83.8882ZM211.803 102.656L213.4 104.14C212.193 105.439 210.998 106.749 209.815 108.07L208.191 106.616C209.383 105.285 210.587 103.965 211.803 102.656ZM194.49 123.099L196.216 124.429C195.133 125.833 194.063 127.248 193.006 128.673L191.256 127.374C192.321 125.939 193.399 124.513 194.49 123.099ZM179.129 145.045L180.97 146.211C180.021 147.709 179.085 149.217 178.163 150.734L176.301 149.602C177.23 148.074 178.172 146.555 179.129 145.045ZM165.857 168.314L167.798 169.305C166.991 170.884 166.199 172.472 165.421 174.068L163.462 173.113C164.246 171.505 165.044 169.905 165.857 168.314ZM154.796 192.712L156.82 193.518C156.164 195.165 155.523 196.819 154.897 198.481L152.858 197.712C153.489 196.038 154.135 194.371 154.796 192.712ZM146.049 218.032L148.14 218.647C147.64 220.346 147.156 222.052 146.687 223.764L144.585 223.188C145.058 221.463 145.546 219.744 146.049 218.032ZM139.694 244.059L141.833 244.477C141.494 246.212 141.17 247.954 140.862 249.701L138.716 249.322C139.026 247.562 139.352 245.808 139.694 244.059ZM135.778 270.568L137.946 270.787C137.769 272.543 137.608 274.303 137.463 276.069L135.291 275.89C135.438 274.111 135.6 272.338 135.778 270.568ZM134.315 297.308C134.307 298.204 134.303 299.102 134.303 300C134.303 300.898 134.307 301.796 134.315 302.692L136.495 302.673C136.486 301.783 136.482 300.892 136.482 300C136.482 299.108 136.486 298.217 136.495 297.327L134.315 297.308ZM135.291 324.11L137.463 323.932C137.608 325.697 137.769 327.457 137.946 329.213L135.778 329.432C135.6 327.662 135.438 325.889 135.291 324.11ZM138.716 350.678L140.862 350.299C141.17 352.046 141.494 353.788 141.833 355.523L139.694 355.941C139.352 354.192 139.026 352.438 138.716 350.678ZM144.585 376.812C145.058 378.537 145.546 380.256 146.049 381.968L148.14 381.353C147.64 379.654 147.156 377.948 146.687 376.236L144.585 376.812ZM152.858 402.288L154.897 401.519C155.523 403.181 156.164 404.835 156.82 406.482L154.796 407.288C154.135 405.629 153.489 403.962 152.858 402.288ZM163.462 426.887L165.421 425.932C166.199 427.528 166.991 429.116 167.798 430.695L165.857 431.686C165.044 430.095 164.246 428.495 163.462 426.887ZM176.301 450.398L178.163 449.266C179.085 450.783 180.021 452.291 180.97 453.789L179.129 454.955C178.172 453.445 177.23 451.926 176.301 450.398ZM191.256 472.626L193.006 471.327C194.063 472.752 195.133 474.167 196.216 475.571L194.49 476.901C193.399 475.487 192.321 474.061 191.256 472.626ZM208.191 493.384L209.815 491.93C210.998 493.251 212.193 494.561 213.4 495.86L211.803 497.344C210.587 496.035 209.383 494.715 208.191 493.384ZM226.96 512.5L228.443 510.903C229.742 512.11 231.052 513.305 232.373 514.488L230.919 516.112C229.588 514.92 228.268 513.716 226.96 512.5ZM247.402 529.813L248.732 528.087C250.137 529.17 251.551 530.24 252.976 531.297L251.677 533.047C250.242 531.982 248.817 530.904 247.402 529.813ZM269.348 545.175L270.514 543.334C272.013 544.283 273.52 545.218 275.037 546.14L273.905 548.002C272.377 547.073 270.858 546.131 269.348 545.175ZM292.617 558.446L293.608 556.506C295.188 557.312 296.775 558.104 298.371 558.882L297.417 560.841C295.809 560.057 294.209 559.259 292.617 558.446ZM317.015 569.507L317.822 567.483C319.468 568.139 321.122 568.78 322.784 569.406L322.015 571.446C320.341 570.814 318.674 570.168 317.015 569.507ZM342.335 578.254L342.95 576.163C344.649 576.663 346.355 577.147 348.067 577.617L347.491 579.718C345.766 579.246 344.048 578.757 342.335 578.254ZM368.362 584.609L368.78 582.47C370.516 582.81 372.257 583.133 374.004 583.441L373.626 585.587C371.866 585.277 370.111 584.951 368.362 584.609ZM394.872 588.525L395.09 586.357C396.846 586.534 398.607 586.695 400.372 586.84L400.193 589.012C398.415 588.866 396.641 588.703 394.872 588.525ZM421.611 589.988L421.631 587.809C422.521 587.817 423.411 587.821 424.303 587.821C425.195 587.821 426.086 587.817 426.976 587.809L426.996 589.988C426.099 589.996 425.202 590 424.303 590C423.405 590 422.507 589.996 421.611 589.988ZM448.414 589.012L448.235 586.84C450 586.695 451.76 586.534 453.516 586.357L453.735 588.525C451.966 588.703 450.192 588.866 448.414 589.012ZM474.981 585.587L474.603 583.441C476.349 583.133 478.091 582.81 479.827 582.47L480.245 584.609C478.496 584.951 476.741 585.277 474.981 585.587ZM501.115 579.718L500.539 577.617C502.251 577.147 503.957 576.663 505.656 576.163L506.271 578.254C504.559 578.757 502.84 579.246 501.115 579.718ZM526.591 571.446L525.823 569.406C527.484 568.78 529.138 568.139 530.785 567.483L531.591 569.507C529.932 570.168 528.265 570.814 526.591 571.446ZM551.19 560.841L550.235 558.882C551.831 558.104 553.419 557.312 554.998 556.506L555.989 558.447C554.398 559.259 552.798 560.057 551.19 560.841ZM574.701 548.002L573.569 546.14C575.086 545.218 576.594 544.283 578.092 543.334L579.258 545.175C577.749 546.131 576.229 547.073 574.701 548.002ZM596.929 533.047L595.631 531.297C597.055 530.24 598.47 529.17 599.874 528.088L601.205 529.813C599.79 530.904 598.365 531.982 596.929 533.047ZM617.687 516.112L616.233 514.488C617.555 513.305 618.865 512.11 620.164 510.904L621.647 512.5C620.338 513.716 619.018 514.92 617.687 516.112ZM636.803 497.344L635.207 495.86C636.414 494.561 637.609 493.251 638.792 491.93L640.415 493.384C639.223 494.715 638.019 496.035 636.803 497.344ZM654.117 476.901L652.391 475.571C653.473 474.167 654.543 472.752 655.6 471.327L657.35 472.626C656.285 474.061 655.207 475.487 654.117 476.901ZM669.478 454.955C670.434 453.445 671.377 451.926 672.305 450.398L670.443 449.266C669.521 450.783 668.586 452.291 667.637 453.789L669.478 454.955ZM682.75 431.686L680.809 430.695C681.615 429.116 682.407 427.528 683.185 425.932L685.144 426.887C684.36 428.495 683.562 430.095 682.75 431.686ZM693.81 407.288L691.786 406.482C692.442 404.835 693.083 403.181 693.71 401.519L695.749 402.288C695.118 403.962 694.471 405.629 693.81 407.288ZM702.557 381.968L700.466 381.353C700.966 379.654 701.451 377.948 701.92 376.236L704.021 376.812C703.549 378.537 703.061 380.256 702.557 381.968ZM708.912 355.941L706.774 355.523C707.113 353.788 707.436 352.046 707.744 350.299L709.89 350.678C709.58 352.438 709.254 354.192 708.912 355.941ZM712.828 329.432L710.66 329.213C710.837 327.457 710.998 325.697 711.143 323.932L713.315 324.11C713.169 325.889 713.007 327.662 712.828 329.432Z" fill="black" stroke="#9013fe" stroke-width="1"></path>
<path fill-rule="evenodd" clip-rule="evenodd" d="M224.964 73.4321C224.058 73.4295 223.159 73.4309 222.266 73.4364L222.253 71.2573C223.152 71.2518 224.058 71.2503 224.97 71.253L224.964 73.4321ZM252.558 74.685C250.719 74.5282 248.896 74.3867 247.091 74.2602L247.244 72.0864C249.06 72.2137 250.893 72.356 252.743 72.5138L252.558 74.685ZM280.02 78.0271C278.19 77.7394 276.371 77.4662 274.563 77.2072L274.872 75.0501C276.69 75.3105 278.519 75.5852 280.359 75.8744L280.02 78.0271ZM307.225 83.2331C305.397 82.821 303.576 82.4231 301.764 82.0393L302.215 79.9074C304.037 80.2932 305.867 80.6931 307.704 81.1073L307.225 83.2331ZM333.945 90.1581C332.168 89.6368 330.395 89.129 328.626 88.6346L329.213 86.536C330.99 87.0328 332.772 87.5431 334.559 88.0671L333.945 90.1581ZM360.23 98.7808C358.501 98.1522 356.774 97.5367 355.05 96.9344L355.769 94.8772C357.501 95.4825 359.237 96.1011 360.975 96.7329L360.23 98.7808ZM385.914 109.061C384.214 108.316 382.514 107.585 380.815 106.867L381.663 104.86C383.371 105.581 385.079 106.317 386.788 107.065L385.914 109.061ZM410.855 120.973C409.223 120.127 407.591 119.294 405.958 118.474L406.935 116.526C408.577 117.35 410.218 118.188 411.858 119.038L410.855 120.973ZM434.967 134.52C433.383 133.559 431.797 132.611 430.208 131.675L431.314 129.798C432.911 130.738 434.506 131.691 436.098 132.658L434.967 134.52ZM664.763 139.85C664.082 140.475 663.401 141.098 662.72 141.721L661.25 140.112C661.93 139.491 662.61 138.868 663.29 138.244L664.763 139.85ZM458.093 149.671C456.588 148.609 455.079 147.56 453.566 146.523L454.798 144.726C456.319 145.768 457.836 146.823 459.349 147.891L458.093 149.671ZM646.412 156.392C645.042 157.605 643.673 158.812 642.305 160.014L640.867 158.377C642.233 157.177 643.6 155.972 644.968 154.761L646.412 156.392ZM480.093 166.385C478.664 165.217 477.229 164.062 475.79 162.92L477.144 161.213C478.592 162.362 480.034 163.523 481.472 164.698L480.093 166.385ZM625.705 174.358C624.31 175.544 622.915 176.725 621.522 177.899L620.117 176.233C621.508 175.06 622.901 173.882 624.294 172.697L625.705 174.358ZM500.888 184.653C499.536 183.376 498.178 182.113 496.815 180.863L498.288 179.257C499.659 180.514 501.024 181.785 502.384 183.068L500.888 184.653ZM604.641 191.894C603.217 193.055 601.794 194.21 600.372 195.359L599.002 193.664C600.421 192.517 601.842 191.364 603.264 190.205L604.641 191.894ZM520.265 204.318C519.026 202.966 517.78 201.627 516.528 200.3L518.113 198.805C519.372 200.139 520.625 201.486 521.871 202.846L520.265 204.318ZM583.221 208.982C581.765 210.119 580.31 211.25 578.857 212.374L577.523 210.651C578.974 209.528 580.426 208.399 581.88 207.265L583.221 208.982ZM538.185 225.343C537.039 223.896 535.887 222.462 534.727 221.041L536.416 219.663C537.582 221.093 538.741 222.535 539.893 223.99L538.185 225.343ZM561.417 225.629C559.937 226.734 558.458 227.833 556.98 228.925L555.685 227.173C557.159 226.083 558.636 224.986 560.114 223.882L561.417 225.629ZM539.245 241.802C537.744 242.872 536.245 243.934 534.748 244.991L533.492 243.21C534.986 242.156 536.482 241.095 537.98 240.028L539.245 241.802ZM554.573 247.627C553.527 246.093 552.473 244.571 551.411 243.061L553.194 241.808C554.261 243.326 555.321 244.856 556.373 246.399L554.573 247.627ZM516.718 257.473C515.199 258.504 513.682 259.529 512.168 260.547L510.952 258.738C512.464 257.722 513.978 256.699 515.494 255.67L516.718 257.473ZM569.364 271.037C568.421 269.424 567.471 267.823 566.513 266.234L568.379 265.109C569.342 266.706 570.298 268.316 571.245 269.938L569.364 271.037ZM493.849 272.615C492.313 273.606 490.78 274.59 489.25 275.567L488.077 273.731C489.604 272.755 491.134 271.773 492.667 270.784L493.849 272.615ZM470.648 287.2C469.099 288.148 467.553 289.089 466.01 290.023L464.881 288.159C466.421 287.227 467.965 286.287 469.511 285.341L470.648 287.2ZM582.47 295.323C581.652 293.677 580.825 292.042 579.991 290.419L581.929 289.423C582.768 291.055 583.599 292.698 584.422 294.353L582.47 295.323ZM447.136 301.196C445.531 302.125 443.93 303.046 442.333 303.959L441.251 302.067C442.845 301.156 444.443 300.237 446.045 299.31L447.136 301.196ZM423.173 314.658C421.558 315.538 419.947 316.41 418.341 317.274L417.309 315.355C418.911 314.493 420.519 313.622 422.13 312.744L423.173 314.658ZM593.957 320.44C593.249 318.752 592.533 317.073 591.81 315.406L593.809 314.538C594.536 316.214 595.255 317.901 595.967 319.598L593.957 320.44ZM398.92 327.462C397.3 328.29 395.686 329.109 394.077 329.921L393.096 327.975C394.701 327.165 396.312 326.347 397.928 325.522L398.92 327.462ZM374.367 339.586C372.693 340.384 371.026 341.172 369.365 341.952L368.439 339.98C370.096 339.202 371.76 338.415 373.429 337.619L374.367 339.586ZM603.846 346.245C603.241 344.512 602.628 342.788 602.008 341.075L604.057 340.333C604.68 342.054 605.296 343.786 605.903 345.528L603.846 346.245ZM349.397 351.046C347.729 351.782 346.069 352.509 344.416 353.226L343.548 351.228C345.197 350.512 346.854 349.787 348.517 349.053L349.397 351.046ZM324.164 361.723C322.448 362.418 320.74 363.103 319.041 363.778L318.236 361.752C319.931 361.079 321.634 360.396 323.346 359.703L324.164 361.723ZM612.182 372.604C611.678 370.836 611.166 369.077 610.646 367.328L612.735 366.707C613.257 368.464 613.771 370.23 614.278 372.007L612.182 372.604ZM298.581 371.595C296.846 372.231 295.121 372.856 293.407 373.471L292.672 371.42C294.381 370.807 296.101 370.183 297.831 369.549L298.581 371.595ZM272.627 380.587C270.891 381.152 269.167 381.706 267.456 382.249L266.797 380.172C268.503 379.631 270.221 379.079 271.952 378.515L272.627 380.587ZM246.369 388.561C244.606 389.056 242.86 389.538 241.131 390.007L240.56 387.904C242.283 387.437 244.023 386.957 245.78 386.463L246.369 388.561ZM219.814 395.35C217.99 395.767 216.19 396.169 214.416 396.554L213.953 394.425C215.72 394.041 217.511 393.641 219.327 393.226L219.814 395.35ZM619.028 399.397C618.621 397.603 618.206 395.818 617.783 394.043L619.903 393.538C620.327 395.321 620.744 397.113 621.153 398.914L619.028 399.397ZM192.828 400.685C191.01 400.981 189.229 401.258 187.484 401.515L187.166 399.359C188.899 399.104 190.67 398.829 192.477 398.534L192.828 400.685ZM165.522 403.89C164.618 403.946 163.731 403.994 162.861 404.035L162.758 401.859C163.618 401.818 164.494 401.77 165.388 401.715L165.522 403.89ZM624.46 426.519C624.144 424.71 623.821 422.909 623.491 421.117L625.634 420.721C625.966 422.521 626.29 424.329 626.606 426.145L624.46 426.519ZM628.558 453.889C628.329 452.072 628.093 450.263 627.849 448.463L630.009 448.171C630.253 449.978 630.49 451.793 630.72 453.617L628.558 453.889ZM631.406 481.442C631.258 479.626 631.103 477.817 630.941 476.016L633.111 475.821C633.274 477.628 633.429 479.443 633.578 481.266L631.406 481.442ZM632.971 506.428C632.929 505.486 632.886 504.545 632.84 503.606L635.017 503.501C635.032 503.813 635.047 504.125 635.062 504.438C635.091 505.069 635.12 505.7 635.148 506.332L632.971 506.428Z" fill="black" stroke="#9013fe" stroke-width="1"></path>
<path d="M710.432 113.916C710.432 145.682 684.681 171.433 652.915 171.433C621.15 171.433 595.398 145.682 595.398 113.916C595.398 82.1505 621.15 56.3994 652.915 56.3994C684.681 56.3994 710.432 82.1505 710.432 113.916Z" fill="#C4B6FF" stroke="#9013fe" stroke-width="1"></path>
<path d="M676.599 509.765C676.599 539.128 652.796 562.931 623.433 562.931C594.07 562.931 570.266 539.128 570.266 509.765C570.266 480.402 594.07 456.598 623.433 456.598C652.796 456.598 676.599 480.402 676.599 509.765Z" fill="#C4B6FF" stroke="#9013fe" stroke-width="1"></path>
<path d="M279.293 80.0808C279.293 107.042 257.438 128.897 230.477 128.897C203.516 128.897 181.66 107.042 181.66 80.0808C181.66 53.1201 203.516 31.2642 230.477 31.2642C257.438 31.2642 279.293 53.1201 279.293 80.0808Z" fill="#7D55FF" stroke="#9013fe" stroke-width="1"></path>
<path d="M219.367 405.847C219.367 442.951 189.288 473.03 152.183 473.03C115.079 473.03 85 442.951 85 405.847C85 368.743 115.079 338.664 152.183 338.664C189.288 338.664 219.367 368.743 219.367 405.847Z" fill="#C4B6FF" stroke="#9013fe" stroke-width="1"></path>
<path d="M488.097 288.881C488.097 313.706 467.972 333.831 443.147 333.831C418.322 333.831 398.197 313.706 398.197 288.881C398.197 264.056 418.322 243.931 443.147 243.931C467.972 243.931 488.097 264.056 488.097 288.881Z" fill="#B5CDFB" stroke="#9013fe" stroke-width="1"></path>
<path fill-rule="evenodd" clip-rule="evenodd" d="M134.301 401.908C132.485 394.733 132.357 386.96 132.617 383.173C137.872 366.572 151.627 373.967 157.848 379.74C176.73 378.166 173.472 393.214 168.876 402.294C169.647 401.381 170.629 400.608 171.584 400.941C172.104 401.122 172.533 402.434 172.48 403.479C172.428 404.508 171.002 413.384 166.282 414.339C165.323 417.718 163.915 420.885 162.03 423.356V431.882V431.94V431.995C162.101 432.015 163.034 432.283 164.591 432.732C169.447 434.131 180.39 437.294 190.242 440.205L190.247 440.206C196.666 442.103 195.771 457.076 195.771 457.076L195.765 457.076C195.583 457.252 176.175 475.94 149.186 472.882C118.879 469.448 110.369 457.803 110.369 457.803V449.312C110.608 441.429 117.435 438.463 120.819 437.965L141.572 431.993L141.572 431.996L141.576 431.995V431.779L141.572 431.676V425.853V421.374H141.576V421.3C140.39 419.493 139.394 417.45 138.601 415.299C133.938 414.269 132.526 405.477 132.474 404.454C132.421 403.408 132.85 402.097 133.37 401.916C133.68 401.807 133.993 401.816 134.301 401.908Z" fill="#7D55FF" stroke="#9013fe" stroke-width="1"></path>
<path fill-rule="evenodd" clip-rule="evenodd" d="M666.768 109.539C667.355 105.035 667.724 100.569 664.948 95.6331C662.398 91.0996 653.828 90.5206 648.831 91.0997C638.642 92.2805 637.315 101.896 638.465 110.3C637.829 109.595 637.05 109.043 636.291 109.308C635.846 109.463 635.479 110.586 635.524 111.481C635.565 112.286 636.589 118.706 639.852 120.426C640.522 123.239 641.604 125.855 643.318 127.885L643.318 135.058L639.765 136.08C636.442 136.979 631.386 138.382 627.238 139.685L625.551 140.17C624.373 140.344 622.706 140.867 621.13 141.881C621.019 141.934 620.917 141.985 620.824 142.035C619.787 142.588 618.985 143.437 618.368 144.465C617.366 145.857 616.672 147.637 616.604 149.884V149.885V150.443C616.287 153.277 616.461 156.047 616.604 157.533V158.395C616.604 158.395 616.642 158.443 616.717 158.533C616.728 158.61 616.734 158.651 616.734 158.651L617.037 158.897C619.194 161.261 629.581 171.176 652.137 171.176C673.583 171.176 686.708 160.775 689.072 158.739L689.587 158.395C689.587 158.395 689.597 157.288 689.534 155.658C689.531 153.119 689.34 149.297 688.377 146.332C687.85 144.382 687.093 142.883 686.008 142.546L685.929 142.522C685.711 142.38 685.475 142.261 685.222 142.167C685.145 142.138 685.066 142.111 684.985 142.088C673.872 138.804 661.136 135.146 660.834 135.059L660.829 135.005V128.998L660.828 129V128.917C663.097 126.771 664.686 123.58 665.452 119.589C668.711 117.865 669.734 111.451 669.775 110.646C669.82 109.751 669.453 108.628 669.008 108.473C668.223 108.199 667.416 108.799 666.768 109.539Z" fill="#7D55FF" stroke="#9013fe" stroke-width="1"></path>
<path fill-rule="evenodd" clip-rule="evenodd" d="M636.922 496.571C636.938 496.752 636.953 496.932 636.966 497.111C637.639 496.03 638.963 494.27 640.235 494.713C640.697 494.874 641.079 496.041 641.032 496.971C640.989 497.807 639.928 504.464 636.547 506.261C635.751 510.414 634.096 513.734 631.735 515.964V516.061L631.738 516.043V522.286L631.744 522.344C632.139 522.457 645.327 526.245 656.84 529.647C656.92 529.671 656.999 529.697 657.077 529.726C657.342 529.823 657.588 529.948 657.817 530.096L657.906 530.123C659.044 530.476 659.834 532.058 660.382 534.112C661.358 537.156 661.561 541.051 661.567 543.674C661.635 545.409 661.625 546.594 661.625 546.594L661.08 546.958C658.602 549.09 645.771 562.726 623.506 562.726C600.021 562.726 588.426 549.534 586.213 547.102L585.912 546.859C585.912 546.859 585.906 546.818 585.896 546.741C585.815 546.645 585.775 546.594 585.775 546.594V545.671C585.627 544.124 585.451 541.272 585.775 538.351V537.75C585.846 535.408 586.571 533.552 587.618 532.105C588.258 531.041 589.089 530.163 590.163 529.591C590.26 529.539 590.366 529.486 590.48 529.431C592.118 528.378 593.849 527.834 595.073 527.654L596.797 527.158C601.134 525.795 606.435 524.325 609.895 523.389L613.537 522.341L613.537 514.886C611.756 512.776 610.632 510.057 609.935 507.135C606.544 505.348 605.48 498.675 605.437 497.838C605.39 496.908 605.772 495.741 606.234 495.58C607.189 495.247 608.173 496.156 608.889 497.087C608.888 496.914 608.887 496.743 608.887 496.572C608.887 487.412 613.691 481.269 622.034 480.632C622.513 480.595 623.004 480.577 623.506 480.577C632.75 480.577 636.922 486.888 636.922 496.571Z" fill="#B5CDFB" stroke="#9013fe" stroke-width="1"></path>
<path fill-rule="evenodd" clip-rule="evenodd" d="M446.953 264.71C446.953 266.278 446.093 267.645 444.819 268.365C462.632 271.361 462.469 290.323 452.845 296.375H452.103C451.43 298.096 450.503 299.526 449.354 300.612V305.408C449.354 305.408 459.442 308.305 468.233 310.902C472.528 312.171 471.928 322.189 471.928 322.189L471.782 322.187C471.768 323.081 471.729 323.646 471.729 323.646C471.729 323.646 461.14 333.635 442.561 333.635C422.547 333.635 414.792 323.646 414.792 323.646V321.39V316.995V316.995C414.952 311.721 419.52 309.736 421.784 309.403L435.669 305.408V299.796C435.048 299.059 434.534 298.224 434.108 297.321C433.935 297.801 433.723 298.163 433.466 298.373H432.767C421.188 289.943 426.498 270.603 440.907 268.476C439.518 267.792 438.563 266.363 438.563 264.71C438.563 262.393 440.441 260.515 442.758 260.515C445.075 260.515 446.953 262.393 446.953 264.71Z" fill="#C4B6FF" stroke="#9013fe" stroke-width="1"></path>
<path fill-rule="evenodd" clip-rule="evenodd" d="M217.811 100.509L210.525 102.537C210.525 102.537 210.081 96.8234 210.525 93.2071C210.765 91.2454 211.441 89.7386 212.096 88.2788C212.91 86.4627 213.692 84.7195 213.562 82.2642C213.498 81.0398 213.34 80.1249 213.182 79.2079C213.026 78.3033 212.87 77.3968 212.803 76.1892C212.514 71.026 216.057 65.7613 216.057 65.7613C221.373 53.8283 230.088 56.9157 234.608 61.1103C236.777 60.2017 241.529 59.491 243.178 63.9171C243.677 65.1475 243.861 67.1284 244.049 69.1528C244.269 71.5234 244.494 73.9535 245.239 75.3076C245.788 76.307 245.901 77.0762 246.011 77.8272C246.139 78.7068 246.264 79.5614 247.083 80.7317C248 82.0415 247.446 82.9843 246.844 84.01C246.449 84.6833 246.033 85.3923 245.998 86.2643C245.911 88.4427 246.788 89.9666 247.686 91.5283C248.481 92.9107 249.294 94.3227 249.47 96.2445C249.652 98.2374 248.909 101.345 248.672 102.269C251.687 103.146 254.994 104.113 258.147 105.045C261.646 106.079 262.154 112.458 262.19 115.583C262.197 116.264 262.183 116.791 262.172 117.074C262.166 117.223 262.161 117.304 262.161 117.304L262.16 117.304C262.034 117.423 247.97 130.625 228.315 128.789C206.184 126.722 200.109 117.303 200.109 117.303V116.436V111.663V111.662C200.283 105.935 205.244 103.779 207.703 103.418L217.811 100.509ZM240.092 99.7834L237.644 98.9913V99.0785C237.644 99.0785 238.56 99.3415 240.092 99.7834Z" fill="#C4B6FF" stroke="#9013fe" stroke-width="1"></path>
</svg>
