<svg t="1627106440066" style="width: 1em;height: 1em;vertical-align: middle;fill: currentColor;overflow: hidden;" viewBox="0 0 1024 1024" version="1.1" xmlns="http://www.w3.org/2000/svg" p-id="1185"><path d="M511.999885 0.00023a510.565885 510.565885 0 0 1 241.407946 60.415986l16.485996 9.215998a38.399991 38.399991 0 1 1-38.757991 66.303985l-13.977997-7.833998A432.997903 432.997903 0 0 0 511.999885 76.800213a435.199902 435.199902 0 1 0 383.897914 230.041948l-7.833998-13.977997a38.399991 38.399991 0 1 1 66.354985-38.757991l9.215998 16.485996A509.797885 509.797885 0 0 1 1023.99977 512.000115c0 282.777936-229.221949 511.999885-511.999885 511.999885S0 794.778051 0 512.000115 229.221949 0.00023 511.999885 0.00023z" fill="#fff" p-id="1186"></path></svg>
