<svg
  width="24"
  height="24"
  viewBox="0 0 24 24"
  fill="none"
  xmlns="http://www.w3.org/2000/svg"
  data-reactroot=""
>
  <path
    fill="#C4B6FF"
    d="M12 3C10.1699 3 8.47021 3.54516 7.05071 4.48172C6.58972 4.78587 5.96946 4.65873 5.66531 4.19774C5.36116 3.73675 5.4883 3.11648 5.94929 2.81233C7.68558 1.66676 9.76645 1 12 1C14.1521 1 16.1627 1.61904 17.8598 2.68917C18.327 2.98375 18.4669 3.60126 18.1723 4.06843C17.8777 4.53559 17.2602 4.67551 16.793 4.38093C15.4059 3.50624 13.7636 3 12 3ZM20.3266 6.37079C20.8125 6.10811 21.4192 6.28898 21.6819 6.77479C22.5229 8.33016 23 10.1109 23 12C23 12.1158 22.9982 12.2312 22.9946 12.3462C22.9776 12.8982 22.5162 13.3319 21.9642 13.3148C21.4122 13.2977 20.9785 12.8363 20.9956 12.2843C20.9985 12.1899 21 12.0951 21 12C21 10.4512 20.6096 8.99652 19.9226 7.72607C19.66 7.24026 19.8408 6.63348 20.3266 6.37079ZM2.5643 8.53156C3.09916 8.66922 3.42114 9.21441 3.28348 9.74926C3.0986 10.4676 3 11.2215 3 12C3 13.4585 3.3462 14.8333 3.96001 16.0494C4.20888 16.5424 4.01094 17.1439 3.5179 17.3927C3.02486 17.6416 2.42343 17.4436 2.17457 16.9506C1.42291 15.4615 1 13.7787 1 12C1 11.052 1.12016 10.1305 1.34661 9.25074C1.48427 8.71589 2.02945 8.3939 2.5643 8.53156ZM19.7141 18.4414C20.1007 18.8358 20.0944 19.4689 19.7 19.8555C18.4778 21.0538 16.9758 21.9698 15.2996 22.4962C14.7727 22.6617 14.2114 22.3688 14.046 21.8418C13.8805 21.3149 14.1734 20.7536 14.7004 20.5881C16.0691 20.1582 17.2982 19.4094 18.3 18.4273C18.6943 18.0407 19.3275 18.047 19.7141 18.4414Z"
    clip-rule="evenodd"
    fill-rule="evenodd"
  ></path>
  <path
    fill="#C4B6FF"
    d="M5 7C5 6.44772 5.44772 6 6 6H8.76657C9.10206 6 9.4152 6.16823 9.6004 6.44797L11.952 10H16C16.5523 10 17 10.4477 17 11C17 11.5523 16.5523 12 16 12H11.4147C11.0793 12 10.7661 11.8318 10.5809 11.552L8.22932 8H6C5.44772 8 5 7.55228 5 7Z"
    clip-rule="evenodd"
    fill-rule="evenodd"
  ></path>
  <path
    fill="#C4B6FF"
    d="M8 15.0751C8 14.5228 8.44772 14.0751 9 14.0751H11C11.5523 14.0751 12 14.5228 12 15.0751C12 15.6274 11.5523 16.0751 11 16.0751H9C8.44772 16.0751 8 15.6274 8 15.0751Z"
    clip-rule="evenodd"
    fill-rule="evenodd"
  ></path>
  <path
    fill="#C4B6FF"
    d="M20.5 16C20.5 15.4477 20.0523 15 19.5 15H16.8913C16.6598 15 16.4355 15.0803 16.2566 15.2273L12.8811 18H7C6.44771 18 6 18.4477 6 19C6 19.5523 6.44771 20 7 20H13.2391C13.4706 20 13.695 19.9197 13.8739 19.7727L17.2494 17H19.5C20.0523 17 20.5 16.5523 20.5 16Z"
    clip-rule="evenodd"
    fill-rule="evenodd"
  ></path>
  <path
    fill="#C4B6FF"
    d="M13 6C13 5.44772 13.4477 5 14 5L15 5C15.5523 5 16 5.44772 16 6C16 6.55228 15.5523 7 15 7H14C13.4477 7 13 6.55228 13 6Z"
    clip-rule="evenodd"
    fill-rule="evenodd"
  ></path>
  <path
    fill="#C4B6FF"
    d="M17 6C17 5.44772 17.4477 5 18 5H18.5C19.0523 5 19.5 5.44772 19.5 6C19.5 6.55228 19.0523 7 18.5 7H18C17.4477 7 17 6.55228 17 6Z"
    clip-rule="evenodd"
    fill-rule="evenodd"
  ></path>
  <path
    fill="#C4B6FF"
    d="M9 22C9 21.4477 9.44772 21 10 21H11C11.5523 21 12 21.4477 12 22C12 22.5523 11.5523 23 11 23H10C9.44772 23 9 22.5523 9 22Z"
    clip-rule="evenodd"
    fill-rule="evenodd"
  ></path>
  <path
    fill="#C4B6FF"
    d="M5 15C5 14.4477 5.44772 14 6 14H6.5C7.05228 14 7.5 14.4477 7.5 15C7.5 15.5523 7.05228 16 6.5 16H6C5.44772 16 5 15.5523 5 15Z"
    clip-rule="evenodd"
    fill-rule="evenodd"
  ></path>
  <path
    fill="#7D55FF"
    d="M3 7C3 5.89543 3.89543 5 5 5C6.10457 5 7 5.89543 7 7C7 8.10457 6.10457 9 5 9C3.89543 9 3 8.10457 3 7Z"
    clip-rule="evenodd"
    fill-rule="evenodd"
  ></path>
  <path
    fill="#7D55FF"
    d="M15 11C15 9.89543 15.8954 9 17 9C18.1046 9 19 9.89543 19 11C19 12.1046 18.1046 13 17 13C15.8954 13 15 12.1046 15 11Z"
    clip-rule="evenodd"
    fill-rule="evenodd"
  ></path>
  <path
    fill="#7D55FF"
    d="M4.84839 11.4574C4.84839 10.3528 5.74382 9.45737 6.84839 9.45737C7.95296 9.45737 8.84839 10.3528 8.84839 11.4574C8.84839 12.5619 7.95296 13.4574 6.84839 13.4574C5.74382 13.4574 4.84839 12.5619 4.84839 11.4574Z"
    clip-rule="evenodd"
    fill-rule="evenodd"
  ></path>
  <path
    fill="#7D55FF"
    d="M10 15C10 13.8954 10.8954 13 12 13C13.1046 13 14 13.8954 14 15C14 16.1046 13.1046 17 12 17C10.8954 17 10 16.1046 10 15Z"
    clip-rule="evenodd"
    fill-rule="evenodd"
  ></path>
  <path
    fill="#7D55FF"
    d="M18.5 15.5761C18.5 14.4715 19.3954 13.5761 20.5 13.5761C21.6046 13.5761 22.5 14.4715 22.5 15.5761C22.5 16.6807 21.6046 17.5761 20.5 17.5761C19.3954 17.5761 18.5 16.6807 18.5 15.5761Z"
    clip-rule="evenodd"
    fill-rule="evenodd"
  ></path>
  <path
    fill="#7D55FF"
    d="M8 19C8 17.8498 7.01364 17 5.97152 17C4.85564 17 4 17.9229 4 19C4 20.0771 4.85564 21 5.97152 21C7.01364 21 8 20.1502 8 19Z"
    clip-rule="evenodd"
    fill-rule="evenodd"
  ></path>
  <path
    fill="#7D55FF"
    d="M11 6C11 4.89543 11.8954 4 13 4C14.1046 4 15 4.89543 15 6C15 7.10457 14.1046 8 13 8C11.8954 8 11 7.10457 11 6Z"
    clip-rule="evenodd"
    fill-rule="evenodd"
  ></path>
</svg>
